<?xml version="1.0" encoding="iso-8859-1"?>
<!-- Generator: Adobe Illustrator 19.0.0, SVG Export Plug-In . SVG Version: 6.00 Build 0)  -->
<svg version="1.1" id="Capa_1" xmlns="http://www.w3.org/2000/svg" xmlns:xlink="http://www.w3.org/1999/xlink" x="0px" y="0px"
	 viewBox="0 0 389.12 389.12" style="enable-background:new 0 0 389.12 389.12;" xml:space="preserve">
<g>
	<g>
		<g>
			<path d="M194.56,0C87.281,0,0,87.281,0,194.56s87.281,194.56,194.56,194.56s194.56-87.281,194.56-194.56S301.839,0,194.56,0z
				 M194.56,375.467c-99.753,0-180.907-81.154-180.907-180.907S94.807,13.653,194.56,13.653S375.467,94.807,375.467,194.56
				S294.313,375.467,194.56,375.467z"/>
			<path d="M194.56,150.187c-24.467,0-44.373,19.907-44.373,44.373c0,24.467,19.907,44.373,44.373,44.373
				c24.467,0,44.373-19.907,44.373-44.373C238.933,170.093,219.027,150.187,194.56,150.187z M194.56,225.28
				c-16.94,0-30.72-13.78-30.72-30.72s13.78-30.72,30.72-30.72s30.72,13.78,30.72,30.72S211.5,225.28,194.56,225.28z"/>
		</g>
	</g>
</g>
<g>
	<g>
		<g>
			<path d="M194.56,122.88c-39.526,0-71.68,32.154-71.68,71.68s32.154,71.68,71.68,71.68s71.68-32.154,71.68-71.68
				S234.086,122.88,194.56,122.88z M194.56,252.587c-31.993,0-58.027-26.034-58.027-58.027s26.034-58.027,58.027-58.027
				s58.027,26.034,58.027,58.027S226.553,252.587,194.56,252.587z"/>
			<path d="M194.56,150.187c-24.467,0-44.373,19.907-44.373,44.373c0,24.467,19.907,44.373,44.373,44.373
				c24.467,0,44.373-19.907,44.373-44.373C238.933,170.093,219.027,150.187,194.56,150.187z M194.56,225.28
				c-16.94,0-30.72-13.78-30.72-30.72s13.78-30.72,30.72-30.72s30.72,13.78,30.72,30.72S211.5,225.28,194.56,225.28z"/>
		</g>
	</g>
</g>
<g>
	<g>
		<path d="M120.305,58.508c-1.932-3.241-6.12-4.308-9.359-2.374C76.559,76.607,51.494,108.947,40.366,147.2
			c-1.053,3.62,1.027,7.407,4.647,8.46c0.633,0.186,1.28,0.273,1.906,0.273c2.961,0,5.687-1.934,6.55-4.919
			c10.161-34.92,33.055-64.454,64.461-83.147C121.172,65.94,122.231,61.747,120.305,58.508z"/>
	</g>
</g>
<g>
</g>
<g>
</g>
<g>
</g>
<g>
</g>
<g>
</g>
<g>
</g>
<g>
</g>
<g>
</g>
<g>
</g>
<g>
</g>
<g>
</g>
<g>
</g>
<g>
</g>
<g>
</g>
<g>
</g>
</svg>
